#N canvas 734 516 341 219 10;
#X obj 104 90 vsnapshot~;
#X obj 104 45 abs~;
#X text 12 4 timer input;
#X obj 104 24 inlet~;
#X text 100 4 signal input;
#X obj 104 165 outlet;
#X obj 15 23 r tick;
#X obj 200 25 inlet;
#X text 199 6 gain;
#X obj 104 112 * 1;
#X obj 104 139 clip 0 1;
#X text 161 138 limit the signal to [0..1];
#X text 238 24 goes from [0..1];
#X obj 200 47 * 5;
#X obj 200 68 + 0.5;
#X obj 104 66 lop~ 5;
#X connect 0 0 9 0;
#X connect 1 0 15 0;
#X connect 3 0 1 0;
#X connect 6 0 0 0;
#X connect 7 0 13 0;
#X connect 9 0 10 0;
#X connect 10 0 5 0;
#X connect 13 0 14 0;
#X connect 14 0 9 1;
#X connect 15 0 0 0;
